{"asset":{"version":"2.0","generator":"babylon.js glTF exporter for   v"},"scene":0,"scenes":[{"nodes":[0,1],"extensions":{}}],"nodes":[{"mesh":0,"translation":[0.0,0.0,0.0],"rotation":[6.71794353E-08,0.0,0.0,1.0],"scale":[1.0,1.0,1.0],"name":"foliage4"},{"translation":[0.0,0.0,0.0],"rotation":[0.0,0.0,0.0,1.0],"scale":[1.0,1.0,1.0],"name":"Default light"}],"meshes":[{"primitives":[{"attributes":{"POSITION":1,"TANGENT":2,"NORMAL":3,"TEXCOORD_0":4},"indices":0,"mode":4,"material":0}],"name":"foliage4"}],"accessors":[{"bufferView":0,"componentType":5123,"count":240,"type":"SCALAR","name":"accessorIndices"},{"bufferView":1,"componentType":5126,"count":240,"max":[8.130947,4.03707,9.3120575],"min":[-9.13168,-3.79834056,-8.294525],"type":"VEC3","name":"accessorPositions"},{"bufferView":2,"componentType":5126,"count":240,"type":"VEC4","name":"accessorTangents"},{"bufferView":1,"byteOffset":2880,"componentType":5126,"count":240,"type":"VEC3","name":"accessorNormals"},{"bufferView":3,"componentType":5126,"count":240,"type":"VEC2","name":"accessorUVs"}],"bufferViews":[{"buffer":0,"byteLength":480,"name":"bufferViewScalar"},{"buffer":0,"byteOffset":480,"byteLength":5760,"byteStride":12,"name":"bufferViewFloatVec3"},{"buffer":0,"byteOffset":6240,"byteLength":3840,"byteStride":16,"name":"bufferViewFloatVec4"},{"buffer":0,"byteOffset":10080,"byteLength":1920,"byteStride":8,"name":"bufferViewFloatVec2"}],"buffers":[{"uri":"foliage4.bin","byteLength":12000}],"materials":[{"pbrMetallicRoughness":{"baseColorFactor":[1.0,1.0,1.0,1.0],"baseColorTexture":{"index":0,"texCoord":0},"metallicFactor":0.0,"roughnessFactor":0.5},"emissiveFactor":[0.0,0.0,0.0],"alphaMode":"OPAQUE","name":"foliage_MTL"}],"textures":[{"sampler":0,"source":0,"name":"CP_foliage.png"}],"images":[{"uri":"CP_foliage.png"}],"samplers":[{"magFilter":9729,"minFilter":9987,"wrapS":10497,"wrapT":10497}]}