{
    "asset" : {
        "generator" : "Khronos glTF Blender I/O v0.9.36",
        "version" : "2.0"
    },
    "scene" : 0,
    "scenes" : [
        {
            "name" : "Scene",
            "nodes" : [
                0,
                1
            ]
        }
    ],
    "nodes" : [
        {
            "mesh" : 0,
            "name" : "tree1"
        },
        {
            "mesh" : 1,
            "name" : "tree_collider"
        }
    ],
    "materials" : [
        {
            "doubleSided" : true,
            "name" : "Material.001",
            "normalTexture" : {
                "index" : 0,
                "texCoord" : 0
            },
            "pbrMetallicRoughness" : {
                "baseColorTexture" : {
                    "index" : 1,
                    "texCoord" : 0
                },
                "metallicFactor" : 0,
                "roughnessFactor" : 0.7090908885002136
            }
        }
    ],
    "meshes" : [
        {
            "name" : "Cylinder",
            "primitives" : [
                {
                    "attributes" : {
                        "POSITION" : 0,
                        "NORMAL" : 1,
                        "TEXCOORD_0" : 2
                    },
                    "indices" : 3,
                    "material" : 0
                }
            ]
        },
        {
            "name" : "Cube",
            "primitives" : [
                {
                    "attributes" : {
                        "POSITION" : 4,
                        "NORMAL" : 5,
                        "TEXCOORD_0" : 6
                    },
                    "indices" : 7
                }
            ]
        }
    ],
    "textures" : [
        {
            "source" : 0
        },
        {
            "source" : 1
        }
    ],
    "images" : [
        {
            "mimeType" : "image/jpeg",
            "name" : "BarkBrown003_NRM_512x1024",
            "uri" : "BarkBrown003_NRM_512x1024.jpg"
        },
        {
            "mimeType" : "image/jpeg",
            "name" : "BarkBrown003_COL_VAR1_512x1024",
            "uri" : "BarkBrown003_COL_VAR1_512x1024.jpg"
        }
    ],
    "accessors" : [
        {
            "bufferView" : 0,
            "componentType" : 5126,
            "count" : 770,
            "max" : [
                0.6988317370414734,
                1.3181535005569458,
                0.2788888216018677
            ],
            "min" : [
                -0.7396021485328674,
                -1.7971278429031372,
                -0.45093482732772827
            ],
            "type" : "VEC3"
        },
        {
            "bufferView" : 1,
            "componentType" : 5126,
            "count" : 770,
            "type" : "VEC3"
        },
        {
            "bufferView" : 2,
            "componentType" : 5126,
            "count" : 770,
            "type" : "VEC2"
        },
        {
            "bufferView" : 3,
            "componentType" : 5123,
            "count" : 1188,
            "type" : "SCALAR"
        },
        {
            "bufferView" : 4,
            "componentType" : 5126,
            "count" : 24,
            "max" : [
                0.23031385242938995,
                1.1393089294433594,
                0.24425065517425537
            ],
            "min" : [
                -0.2848900854587555,
                -1.787538766860962,
                -0.27095329761505127
            ],
            "type" : "VEC3"
        },
        {
            "bufferView" : 5,
            "componentType" : 5126,
            "count" : 24,
            "type" : "VEC3"
        },
        {
            "bufferView" : 6,
            "componentType" : 5126,
            "count" : 24,
            "type" : "VEC2"
        },
        {
            "bufferView" : 7,
            "componentType" : 5123,
            "count" : 36,
            "type" : "SCALAR"
        }
    ],
    "bufferViews" : [
        {
            "buffer" : 0,
            "byteLength" : 9240,
            "byteOffset" : 0
        },
        {
            "buffer" : 0,
            "byteLength" : 9240,
            "byteOffset" : 9240
        },
        {
            "buffer" : 0,
            "byteLength" : 6160,
            "byteOffset" : 18480
        },
        {
            "buffer" : 0,
            "byteLength" : 2376,
            "byteOffset" : 24640
        },
        {
            "buffer" : 0,
            "byteLength" : 288,
            "byteOffset" : 27016
        },
        {
            "buffer" : 0,
            "byteLength" : 288,
            "byteOffset" : 27304
        },
        {
            "buffer" : 0,
            "byteLength" : 192,
            "byteOffset" : 27592
        },
        {
            "buffer" : 0,
            "byteLength" : 72,
            "byteOffset" : 27784
        }
    ],
    "buffers" : [
        {
            "byteLength" : 27856,
            "uri" : "humanoidtree_1.bin"
        }
    ]
}
