{
    "asset" : {
        "generator" : "Khronos glTF Blender I/O v0.9.36",
        "version" : "2.0"
    },
    "scene" : 0,
    "scenes" : [
        {
            "name" : "Scene",
            "nodes" : [
                0,
                1
            ]
        }
    ],
    "nodes" : [
        {
            "mesh" : 0,
            "name" : "tree5"
        },
        {
            "mesh" : 1,
            "name" : "tree_collider"
        }
    ],
    "materials" : [
        {
            "doubleSided" : true,
            "name" : "Material.001",
            "normalTexture" : {
                "index" : 0,
                "texCoord" : 0
            },
            "pbrMetallicRoughness" : {
                "baseColorTexture" : {
                    "index" : 1,
                    "texCoord" : 0
                },
                "metallicFactor" : 0,
                "roughnessFactor" : 0.7090908885002136
            }
        }
    ],
    "meshes" : [
        {
            "name" : "Cylinder.004",
            "primitives" : [
                {
                    "attributes" : {
                        "POSITION" : 0,
                        "NORMAL" : 1,
                        "TEXCOORD_0" : 2
                    },
                    "indices" : 3,
                    "material" : 0
                }
            ]
        },
        {
            "name" : "Cube",
            "primitives" : [
                {
                    "attributes" : {
                        "POSITION" : 4,
                        "NORMAL" : 5,
                        "TEXCOORD_0" : 6
                    },
                    "indices" : 7
                }
            ]
        }
    ],
    "textures" : [
        {
            "source" : 0
        },
        {
            "source" : 1
        }
    ],
    "images" : [
        {
            "mimeType" : "image/jpeg",
            "name" : "BarkBrown003_NRM_512x1024",
            "uri" : "BarkBrown003_NRM_512x1024.jpg"
        },
        {
            "mimeType" : "image/jpeg",
            "name" : "BarkBrown003_COL_VAR1_512x1024",
            "uri" : "BarkBrown003_COL_VAR1_512x1024.jpg"
        }
    ],
    "accessors" : [
        {
            "bufferView" : 0,
            "componentType" : 5126,
            "count" : 720,
            "max" : [
                0.43879181146621704,
                1.3334064483642578,
                0.4614620804786682
            ],
            "min" : [
                -0.4579457640647888,
                -1.6691211462020874,
                -0.20965902507305145
            ],
            "type" : "VEC3"
        },
        {
            "bufferView" : 1,
            "componentType" : 5126,
            "count" : 720,
            "type" : "VEC3"
        },
        {
            "bufferView" : 2,
            "componentType" : 5126,
            "count" : 720,
            "type" : "VEC2"
        },
        {
            "bufferView" : 3,
            "componentType" : 5123,
            "count" : 1104,
            "type" : "SCALAR"
        },
        {
            "bufferView" : 4,
            "componentType" : 5126,
            "count" : 24,
            "max" : [
                0.16163243353366852,
                1.4553730487823486,
                0.19315801560878754
            ],
            "min" : [
                -0.24580055475234985,
                -1.6806941032409668,
                -0.21427500247955322
            ],
            "type" : "VEC3"
        },
        {
            "bufferView" : 5,
            "componentType" : 5126,
            "count" : 24,
            "type" : "VEC3"
        },
        {
            "bufferView" : 6,
            "componentType" : 5126,
            "count" : 24,
            "type" : "VEC2"
        },
        {
            "bufferView" : 7,
            "componentType" : 5123,
            "count" : 36,
            "type" : "SCALAR"
        }
    ],
    "bufferViews" : [
        {
            "buffer" : 0,
            "byteLength" : 8640,
            "byteOffset" : 0
        },
        {
            "buffer" : 0,
            "byteLength" : 8640,
            "byteOffset" : 8640
        },
        {
            "buffer" : 0,
            "byteLength" : 5760,
            "byteOffset" : 17280
        },
        {
            "buffer" : 0,
            "byteLength" : 2208,
            "byteOffset" : 23040
        },
        {
            "buffer" : 0,
            "byteLength" : 288,
            "byteOffset" : 25248
        },
        {
            "buffer" : 0,
            "byteLength" : 288,
            "byteOffset" : 25536
        },
        {
            "buffer" : 0,
            "byteLength" : 192,
            "byteOffset" : 25824
        },
        {
            "buffer" : 0,
            "byteLength" : 72,
            "byteOffset" : 26016
        }
    ],
    "buffers" : [
        {
            "byteLength" : 26088,
            "uri" : "humanoidtree_5.bin"
        }
    ]
}
