{
    "asset" : {
        "generator" : "Khronos glTF Blender I/O v0.9.36",
        "version" : "2.0"
    },
    "scene" : 0,
    "scenes" : [
        {
            "name" : "Scene",
            "nodes" : [
                0,
                1
            ]
        }
    ],
    "nodes" : [
        {
            "mesh" : 0,
            "name" : "tree4"
        },
        {
            "mesh" : 1,
            "name" : "tree_collider"
        }
    ],
    "materials" : [
        {
            "doubleSided" : true,
            "name" : "Material.001",
            "normalTexture" : {
                "index" : 0,
                "texCoord" : 0
            },
            "pbrMetallicRoughness" : {
                "baseColorTexture" : {
                    "index" : 1,
                    "texCoord" : 0
                },
                "metallicFactor" : 0,
                "roughnessFactor" : 0.7090908885002136
            }
        }
    ],
    "meshes" : [
        {
            "name" : "Cylinder.003",
            "primitives" : [
                {
                    "attributes" : {
                        "POSITION" : 0,
                        "NORMAL" : 1,
                        "TEXCOORD_0" : 2
                    },
                    "indices" : 3,
                    "material" : 0
                }
            ]
        },
        {
            "name" : "Cube",
            "primitives" : [
                {
                    "attributes" : {
                        "POSITION" : 4,
                        "NORMAL" : 5,
                        "TEXCOORD_0" : 6
                    },
                    "indices" : 7
                }
            ]
        }
    ],
    "textures" : [
        {
            "source" : 0
        },
        {
            "source" : 1
        }
    ],
    "images" : [
        {
            "mimeType" : "image/jpeg",
            "name" : "BarkBrown003_NRM_512x1024",
            "uri" : "BarkBrown003_NRM_512x1024.jpg"
        },
        {
            "mimeType" : "image/jpeg",
            "name" : "BarkBrown003_COL_VAR1_512x1024",
            "uri" : "BarkBrown003_COL_VAR1_512x1024.jpg"
        }
    ],
    "accessors" : [
        {
            "bufferView" : 0,
            "componentType" : 5126,
            "count" : 912,
            "max" : [
                0.26077085733413696,
                1.5367282629013062,
                0.4671597182750702
            ],
            "min" : [
                -0.5090423226356506,
                -1.6442317962646484,
                -0.4101923406124115
            ],
            "type" : "VEC3"
        },
        {
            "bufferView" : 1,
            "componentType" : 5126,
            "count" : 912,
            "type" : "VEC3"
        },
        {
            "bufferView" : 2,
            "componentType" : 5126,
            "count" : 912,
            "type" : "VEC2"
        },
        {
            "bufferView" : 3,
            "componentType" : 5123,
            "count" : 1398,
            "type" : "SCALAR"
        },
        {
            "bufferView" : 4,
            "componentType" : 5126,
            "count" : 24,
            "max" : [
                0.16163243353366852,
                1.5184532403945923,
                0.19315801560878754
            ],
            "min" : [
                -0.24580055475234985,
                -1.6176139116287231,
                -0.21427500247955322
            ],
            "type" : "VEC3"
        },
        {
            "bufferView" : 5,
            "componentType" : 5126,
            "count" : 24,
            "type" : "VEC3"
        },
        {
            "bufferView" : 6,
            "componentType" : 5126,
            "count" : 24,
            "type" : "VEC2"
        },
        {
            "bufferView" : 7,
            "componentType" : 5123,
            "count" : 36,
            "type" : "SCALAR"
        }
    ],
    "bufferViews" : [
        {
            "buffer" : 0,
            "byteLength" : 10944,
            "byteOffset" : 0
        },
        {
            "buffer" : 0,
            "byteLength" : 10944,
            "byteOffset" : 10944
        },
        {
            "buffer" : 0,
            "byteLength" : 7296,
            "byteOffset" : 21888
        },
        {
            "buffer" : 0,
            "byteLength" : 2796,
            "byteOffset" : 29184
        },
        {
            "buffer" : 0,
            "byteLength" : 288,
            "byteOffset" : 31980
        },
        {
            "buffer" : 0,
            "byteLength" : 288,
            "byteOffset" : 32268
        },
        {
            "buffer" : 0,
            "byteLength" : 192,
            "byteOffset" : 32556
        },
        {
            "buffer" : 0,
            "byteLength" : 72,
            "byteOffset" : 32748
        }
    ],
    "buffers" : [
        {
            "byteLength" : 32820,
            "uri" : "humanoidtree_4.bin"
        }
    ]
}
