{
    "asset" : {
        "generator" : "Khronos glTF Blender I/O v0.9.36",
        "version" : "2.0"
    },
    "scene" : 0,
    "scenes" : [
        {
            "name" : "Scene",
            "nodes" : [
                0,
                1
            ]
        }
    ],
    "nodes" : [
        {
            "mesh" : 0,
            "name" : "tree3"
        },
        {
            "mesh" : 1,
            "name" : "tree_collider"
        }
    ],
    "materials" : [
        {
            "doubleSided" : true,
            "name" : "Material.001",
            "normalTexture" : {
                "index" : 0,
                "texCoord" : 0
            },
            "pbrMetallicRoughness" : {
                "baseColorTexture" : {
                    "index" : 1,
                    "texCoord" : 0
                },
                "metallicFactor" : 0,
                "roughnessFactor" : 0.7090908885002136
            }
        }
    ],
    "meshes" : [
        {
            "name" : "Cylinder.002",
            "primitives" : [
                {
                    "attributes" : {
                        "POSITION" : 0,
                        "NORMAL" : 1,
                        "TEXCOORD_0" : 2
                    },
                    "indices" : 3,
                    "material" : 0
                }
            ]
        },
        {
            "name" : "Cube",
            "primitives" : [
                {
                    "attributes" : {
                        "POSITION" : 4,
                        "NORMAL" : 5,
                        "TEXCOORD_0" : 6
                    },
                    "indices" : 7
                }
            ]
        }
    ],
    "textures" : [
        {
            "source" : 0
        },
        {
            "source" : 1
        }
    ],
    "images" : [
        {
            "mimeType" : "image/jpeg",
            "name" : "BarkBrown003_NRM_512x1024",
            "uri" : "BarkBrown003_NRM_512x1024.jpg"
        },
        {
            "mimeType" : "image/jpeg",
            "name" : "BarkBrown003_COL_VAR1_512x1024",
            "uri" : "BarkBrown003_COL_VAR1_512x1024.jpg"
        }
    ],
    "accessors" : [
        {
            "bufferView" : 0,
            "componentType" : 5126,
            "count" : 770,
            "max" : [
                0.47434061765670776,
                1.0181236267089844,
                0.6993144750595093
            ],
            "min" : [
                -0.4412955641746521,
                -2.178279161453247,
                -0.55869460105896
            ],
            "type" : "VEC3"
        },
        {
            "bufferView" : 1,
            "componentType" : 5126,
            "count" : 770,
            "type" : "VEC3"
        },
        {
            "bufferView" : 2,
            "componentType" : 5126,
            "count" : 770,
            "type" : "VEC2"
        },
        {
            "bufferView" : 3,
            "componentType" : 5123,
            "count" : 1176,
            "type" : "SCALAR"
        },
        {
            "bufferView" : 4,
            "componentType" : 5126,
            "count" : 24,
            "max" : [
                0.16163243353366852,
                0.9665012359619141,
                0.19315801560878754
            ],
            "min" : [
                -0.24580055475234985,
                -2.1695659160614014,
                -0.21427500247955322
            ],
            "type" : "VEC3"
        },
        {
            "bufferView" : 5,
            "componentType" : 5126,
            "count" : 24,
            "type" : "VEC3"
        },
        {
            "bufferView" : 6,
            "componentType" : 5126,
            "count" : 24,
            "type" : "VEC2"
        },
        {
            "bufferView" : 7,
            "componentType" : 5123,
            "count" : 36,
            "type" : "SCALAR"
        }
    ],
    "bufferViews" : [
        {
            "buffer" : 0,
            "byteLength" : 9240,
            "byteOffset" : 0
        },
        {
            "buffer" : 0,
            "byteLength" : 9240,
            "byteOffset" : 9240
        },
        {
            "buffer" : 0,
            "byteLength" : 6160,
            "byteOffset" : 18480
        },
        {
            "buffer" : 0,
            "byteLength" : 2352,
            "byteOffset" : 24640
        },
        {
            "buffer" : 0,
            "byteLength" : 288,
            "byteOffset" : 26992
        },
        {
            "buffer" : 0,
            "byteLength" : 288,
            "byteOffset" : 27280
        },
        {
            "buffer" : 0,
            "byteLength" : 192,
            "byteOffset" : 27568
        },
        {
            "buffer" : 0,
            "byteLength" : 72,
            "byteOffset" : 27760
        }
    ],
    "buffers" : [
        {
            "byteLength" : 27832,
            "uri" : "humanoidtree_3.bin"
        }
    ]
}
