{
    "asset" : {
        "generator" : "Khronos glTF Blender I/O v0.9.36",
        "version" : "2.0"
    },
    "scene" : 0,
    "scenes" : [
        {
            "name" : "Scene",
            "nodes" : [
                0,
                1
            ]
        }
    ],
    "nodes" : [
        {
            "mesh" : 0,
            "name" : "tree6"
        },
        {
            "mesh" : 1,
            "name" : "tree_collider"
        }
    ],
    "materials" : [
        {
            "doubleSided" : true,
            "name" : "Material.001",
            "normalTexture" : {
                "index" : 0,
                "texCoord" : 0
            },
            "pbrMetallicRoughness" : {
                "baseColorTexture" : {
                    "index" : 1,
                    "texCoord" : 0
                },
                "metallicFactor" : 0,
                "roughnessFactor" : 0.7090908885002136
            }
        }
    ],
    "meshes" : [
        {
            "name" : "Cylinder.005",
            "primitives" : [
                {
                    "attributes" : {
                        "POSITION" : 0,
                        "NORMAL" : 1,
                        "TEXCOORD_0" : 2
                    },
                    "indices" : 3,
                    "material" : 0
                }
            ]
        },
        {
            "name" : "Cube",
            "primitives" : [
                {
                    "attributes" : {
                        "POSITION" : 4,
                        "NORMAL" : 5,
                        "TEXCOORD_0" : 6
                    },
                    "indices" : 7
                }
            ]
        }
    ],
    "textures" : [
        {
            "source" : 0
        },
        {
            "source" : 1
        }
    ],
    "images" : [
        {
            "mimeType" : "image/jpeg",
            "name" : "BarkBrown003_NRM_512x1024",
            "uri" : "BarkBrown003_NRM_512x1024.jpg"
        },
        {
            "mimeType" : "image/jpeg",
            "name" : "BarkBrown003_COL_VAR1_512x1024",
            "uri" : "BarkBrown003_COL_VAR1_512x1024.jpg"
        }
    ],
    "accessors" : [
        {
            "bufferView" : 0,
            "componentType" : 5126,
            "count" : 700,
            "max" : [
                0.21016481518745422,
                1.236701488494873,
                0.5746604204177856
            ],
            "min" : [
                -0.2934567630290985,
                -1.1977554559707642,
                -0.5500448346138
            ],
            "type" : "VEC3"
        },
        {
            "bufferView" : 1,
            "componentType" : 5126,
            "count" : 700,
            "type" : "VEC3"
        },
        {
            "bufferView" : 2,
            "componentType" : 5126,
            "count" : 700,
            "type" : "VEC2"
        },
        {
            "bufferView" : 3,
            "componentType" : 5123,
            "count" : 1080,
            "type" : "SCALAR"
        },
        {
            "bufferView" : 4,
            "componentType" : 5126,
            "count" : 24,
            "max" : [
                0.11832774430513382,
                1.0996073484420776,
                0.14140696823596954
            ],
            "min" : [
                -0.1799454689025879,
                -1.1962422132492065,
                -0.15686626732349396
            ],
            "type" : "VEC3"
        },
        {
            "bufferView" : 5,
            "componentType" : 5126,
            "count" : 24,
            "type" : "VEC3"
        },
        {
            "bufferView" : 6,
            "componentType" : 5126,
            "count" : 24,
            "type" : "VEC2"
        },
        {
            "bufferView" : 7,
            "componentType" : 5123,
            "count" : 36,
            "type" : "SCALAR"
        }
    ],
    "bufferViews" : [
        {
            "buffer" : 0,
            "byteLength" : 8400,
            "byteOffset" : 0
        },
        {
            "buffer" : 0,
            "byteLength" : 8400,
            "byteOffset" : 8400
        },
        {
            "buffer" : 0,
            "byteLength" : 5600,
            "byteOffset" : 16800
        },
        {
            "buffer" : 0,
            "byteLength" : 2160,
            "byteOffset" : 22400
        },
        {
            "buffer" : 0,
            "byteLength" : 288,
            "byteOffset" : 24560
        },
        {
            "buffer" : 0,
            "byteLength" : 288,
            "byteOffset" : 24848
        },
        {
            "buffer" : 0,
            "byteLength" : 192,
            "byteOffset" : 25136
        },
        {
            "buffer" : 0,
            "byteLength" : 72,
            "byteOffset" : 25328
        }
    ],
    "buffers" : [
        {
            "byteLength" : 25400,
            "uri" : "humanoidtree_6.bin"
        }
    ]
}
