{
    "asset" : {
        "generator" : "Khronos glTF Blender I/O v0.9.36",
        "version" : "2.0"
    },
    "scene" : 0,
    "scenes" : [
        {
            "name" : "Scene",
            "nodes" : [
                0,
                1
            ]
        }
    ],
    "nodes" : [
        {
            "mesh" : 0,
            "name" : "trunk"
        },
        {
            "mesh" : 1,
            "name" : "trunk_collider"
        }
    ],
    "materials" : [
        {
            "doubleSided" : true,
            "name" : "trunk.004",
            "normalTexture" : {
                "index" : 0,
                "texCoord" : 0
            },
            "pbrMetallicRoughness" : {
                "baseColorTexture" : {
                    "index" : 1,
                    "texCoord" : 0
                },
                "metallicFactor" : 0,
                "roughnessFactor" : 0.5
            }
        },
        {
            "doubleSided" : true,
            "name" : "foliage",
            "pbrMetallicRoughness" : {
                "baseColorTexture" : {
                    "index" : 2,
                    "texCoord" : 0
                },
                "metallicFactor" : 0,
                "roughnessFactor" : 0.5
            }
        }
    ],
    "meshes" : [
        {
            "name" : "Cylinder",
            "primitives" : [
                {
                    "attributes" : {
                        "POSITION" : 0,
                        "NORMAL" : 1,
                        "TEXCOORD_0" : 2
                    },
                    "indices" : 3,
                    "material" : 0
                },
                {
                    "attributes" : {
                        "POSITION" : 4,
                        "NORMAL" : 5,
                        "TEXCOORD_0" : 6
                    },
                    "indices" : 7,
                    "material" : 1
                }
            ]
        },
        {
            "name" : "Cube.005",
            "primitives" : [
                {
                    "attributes" : {
                        "POSITION" : 8,
                        "NORMAL" : 9,
                        "TEXCOORD_0" : 10
                    },
                    "indices" : 11
                }
            ]
        }
    ],
    "textures" : [
        {
            "source" : 0
        },
        {
            "source" : 1
        },
        {
            "source" : 2
        }
    ],
    "images" : [
        {
            "mimeType" : "image/png",
            "name" : "Image_0",
            "uri" : "Image_0.png"
        },
        {
            "mimeType" : "image/png",
            "name" : "Image_1",
            "uri" : "Image_1.png"
        },
        {
            "mimeType" : "image/png",
            "name" : "Image_2",
            "uri" : "Image_2.png"
        }
    ],
    "accessors" : [
        {
            "bufferView" : 0,
            "componentType" : 5126,
            "count" : 3033,
            "max" : [
                6.9927215576171875,
                41.55002212524414,
                6.492735862731934
            ],
            "min" : [
                -10.431841850280762,
                -39.403072357177734,
                -5.866016387939453
            ],
            "type" : "VEC3"
        },
        {
            "bufferView" : 1,
            "componentType" : 5126,
            "count" : 3033,
            "type" : "VEC3"
        },
        {
            "bufferView" : 2,
            "componentType" : 5126,
            "count" : 3033,
            "type" : "VEC2"
        },
        {
            "bufferView" : 3,
            "componentType" : 5123,
            "count" : 4158,
            "type" : "SCALAR"
        },
        {
            "bufferView" : 4,
            "componentType" : 5126,
            "count" : 1440,
            "max" : [
                25.07994270324707,
                42.69696044921875,
                13.772153854370117
            ],
            "min" : [
                -26.544307708740234,
                -10.654674530029297,
                -15.17648983001709
            ],
            "type" : "VEC3"
        },
        {
            "bufferView" : 5,
            "componentType" : 5126,
            "count" : 1440,
            "type" : "VEC3"
        },
        {
            "bufferView" : 6,
            "componentType" : 5126,
            "count" : 1440,
            "type" : "VEC2"
        },
        {
            "bufferView" : 7,
            "componentType" : 5123,
            "count" : 1440,
            "type" : "SCALAR"
        },
        {
            "bufferView" : 8,
            "componentType" : 5126,
            "count" : 56,
            "max" : [
                4.115949630737305,
                38.41290283203125,
                2.9984514713287354
            ],
            "min" : [
                -2.925342321395874,
                -38.91524124145508,
                -3.2551538944244385
            ],
            "type" : "VEC3"
        },
        {
            "bufferView" : 9,
            "componentType" : 5126,
            "count" : 56,
            "type" : "VEC3"
        },
        {
            "bufferView" : 10,
            "componentType" : 5126,
            "count" : 56,
            "type" : "VEC2"
        },
        {
            "bufferView" : 11,
            "componentType" : 5123,
            "count" : 60,
            "type" : "SCALAR"
        }
    ],
    "bufferViews" : [
        {
            "buffer" : 0,
            "byteLength" : 36396,
            "byteOffset" : 0
        },
        {
            "buffer" : 0,
            "byteLength" : 36396,
            "byteOffset" : 36396
        },
        {
            "buffer" : 0,
            "byteLength" : 24264,
            "byteOffset" : 72792
        },
        {
            "buffer" : 0,
            "byteLength" : 8316,
            "byteOffset" : 97056
        },
        {
            "buffer" : 0,
            "byteLength" : 17280,
            "byteOffset" : 105372
        },
        {
            "buffer" : 0,
            "byteLength" : 17280,
            "byteOffset" : 122652
        },
        {
            "buffer" : 0,
            "byteLength" : 11520,
            "byteOffset" : 139932
        },
        {
            "buffer" : 0,
            "byteLength" : 2880,
            "byteOffset" : 151452
        },
        {
            "buffer" : 0,
            "byteLength" : 672,
            "byteOffset" : 154332
        },
        {
            "buffer" : 0,
            "byteLength" : 672,
            "byteOffset" : 155004
        },
        {
            "buffer" : 0,
            "byteLength" : 448,
            "byteOffset" : 155676
        },
        {
            "buffer" : 0,
            "byteLength" : 120,
            "byteOffset" : 156124
        }
    ],
    "buffers" : [
        {
            "byteLength" : 156244,
            "uri" : "tree1_v2.bin"
        }
    ]
}
