{
    "asset" : {
        "generator" : "Khronos glTF Blender I/O v0.9.36",
        "version" : "2.0"
    },
    "scene" : 0,
    "scenes" : [
        {
            "name" : "Scene",
            "nodes" : [
                0,
                1
            ]
        }
    ],
    "nodes" : [
        {
            "mesh" : 0,
            "name" : "trunk2_collider"
        },
        {
            "mesh" : 1,
            "name" : "trunk5"
        }
    ],
    "materials" : [
        {
            "doubleSided" : true,
            "name" : "trunk.003",
            "normalTexture" : {
                "index" : 0,
                "texCoord" : 0
            },
            "pbrMetallicRoughness" : {
                "baseColorTexture" : {
                    "index" : 1,
                    "texCoord" : 0
                },
                "metallicFactor" : 0,
                "roughnessFactor" : 0.5
            }
        }
    ],
    "meshes" : [
        {
            "name" : "Cube.004",
            "primitives" : [
                {
                    "attributes" : {
                        "POSITION" : 0,
                        "NORMAL" : 1,
                        "TEXCOORD_0" : 2
                    },
                    "indices" : 3
                }
            ]
        },
        {
            "name" : "Cylinder.029",
            "primitives" : [
                {
                    "attributes" : {
                        "POSITION" : 4,
                        "NORMAL" : 5,
                        "TEXCOORD_0" : 6
                    },
                    "indices" : 7,
                    "material" : 0
                }
            ]
        }
    ],
    "textures" : [
        {
            "source" : 0
        },
        {
            "source" : 1
        }
    ],
    "images" : [
        {
            "mimeType" : "image/png",
            "name" : "Image_0",
            "uri" : "Image_0.png"
        },
        {
            "mimeType" : "image/png",
            "name" : "Image_1",
            "uri" : "Image_1.png"
        }
    ],
    "accessors" : [
        {
            "bufferView" : 0,
            "componentType" : 5126,
            "count" : 46,
            "max" : [
                2.335327625274658,
                30.466875076293945,
                2.198352098464966
            ],
            "min" : [
                -1.716538667678833,
                -46.03144836425781,
                -1.6202723979949951
            ],
            "type" : "VEC3"
        },
        {
            "bufferView" : 1,
            "componentType" : 5126,
            "count" : 46,
            "type" : "VEC3"
        },
        {
            "bufferView" : 2,
            "componentType" : 5126,
            "count" : 46,
            "type" : "VEC2"
        },
        {
            "bufferView" : 3,
            "componentType" : 5123,
            "count" : 60,
            "type" : "SCALAR"
        },
        {
            "bufferView" : 4,
            "componentType" : 5126,
            "count" : 3830,
            "max" : [
                8.38652515411377,
                34.2930793762207,
                4.86161470413208
            ],
            "min" : [
                -9.328811645507812,
                -45.70695877075195,
                -7.404804706573486
            ],
            "type" : "VEC3"
        },
        {
            "bufferView" : 5,
            "componentType" : 5126,
            "count" : 3830,
            "type" : "VEC3"
        },
        {
            "bufferView" : 6,
            "componentType" : 5126,
            "count" : 3830,
            "type" : "VEC2"
        },
        {
            "bufferView" : 7,
            "componentType" : 5123,
            "count" : 5136,
            "type" : "SCALAR"
        }
    ],
    "bufferViews" : [
        {
            "buffer" : 0,
            "byteLength" : 552,
            "byteOffset" : 0
        },
        {
            "buffer" : 0,
            "byteLength" : 552,
            "byteOffset" : 552
        },
        {
            "buffer" : 0,
            "byteLength" : 368,
            "byteOffset" : 1104
        },
        {
            "buffer" : 0,
            "byteLength" : 120,
            "byteOffset" : 1472
        },
        {
            "buffer" : 0,
            "byteLength" : 45960,
            "byteOffset" : 1592
        },
        {
            "buffer" : 0,
            "byteLength" : 45960,
            "byteOffset" : 47552
        },
        {
            "buffer" : 0,
            "byteLength" : 30640,
            "byteOffset" : 93512
        },
        {
            "buffer" : 0,
            "byteLength" : 10272,
            "byteOffset" : 124152
        }
    ],
    "buffers" : [
        {
            "byteLength" : 134424,
            "uri" : "trunk5_v2.bin"
        }
    ]
}
