{
    "asset" : {
        "generator" : "Khronos glTF Blender I/O v0.9.36",
        "version" : "2.0"
    },
    "scene" : 0,
    "scenes" : [
        {
            "name" : "Scene",
            "nodes" : [
                0
            ]
        }
    ],
    "nodes" : [
        {
            "mesh" : 0,
            "name" : "journal_page"
        }
    ],
    "materials" : [
        {
            "doubleSided" : true,
            "name" : "Material.002",
            "pbrMetallicRoughness" : {
                "baseColorTexture" : {
                    "index" : 0,
                    "texCoord" : 0
                },
                "metallicFactor" : 0,
                "roughnessFactor" : 0.5
            }
        }
    ],
    "meshes" : [
        {
            "name" : "Plane.002",
            "primitives" : [
                {
                    "attributes" : {
                        "POSITION" : 0,
                        "NORMAL" : 1,
                        "TEXCOORD_0" : 2
                    },
                    "indices" : 3,
                    "material" : 0
                }
            ]
        }
    ],
    "textures" : [
        {
            "source" : 0
        }
    ],
    "images" : [
        {
            "bufferView" : 4,
            "mimeType" : "image/png",
            "name" : "76"
        }
    ],
    "accessors" : [
        {
            "bufferView" : 0,
            "componentType" : 5126,
            "count" : 57,
            "max" : [
                0.21000002324581146,
                0.04476466029882431,
                0.3000284731388092
            ],
            "min" : [
                -0.21001699566841125,
                0.0022032298147678375,
                -0.3000175654888153
            ],
            "type" : "VEC3"
        },
        {
            "bufferView" : 1,
            "componentType" : 5126,
            "count" : 57,
            "type" : "VEC3"
        },
        {
            "bufferView" : 2,
            "componentType" : 5126,
            "count" : 57,
            "type" : "VEC2"
        },
        {
            "bufferView" : 3,
            "componentType" : 5123,
            "count" : 57,
            "type" : "SCALAR"
        }
    ],
    "bufferViews" : [
        {
            "buffer" : 0,
            "byteLength" : 684,
            "byteOffset" : 0
        },
        {
            "buffer" : 0,
            "byteLength" : 684,
            "byteOffset" : 684
        },
        {
            "buffer" : 0,
            "byteLength" : 456,
            "byteOffset" : 1368
        },
        {
            "buffer" : 0,
            "byteLength" : 114,
            "byteOffset" : 1824
        },
        {
            "buffer" : 0,
            "byteLength" : 294117,
            "byteOffset" : 1940
        }
    ],
    "buffers" : [
        {
            "byteLength" : 296060,
            "uri" : "data:application/octet-stream;base64,"
        }
    ]
}
