{
    "asset" : {
        "generator" : "Khronos glTF Blender I/O v0.9.36",
        "version" : "2.0"
    },
    "scene" : 0,
    "scenes" : [
        {
            "name" : "Scene",
            "nodes" : [
                0,
                1
            ]
        }
    ],
    "nodes" : [
        {
            "mesh" : 0,
            "name" : "paper",
            "scale" : [
                0.21066631376743317,
                -0.058214619755744934,
                0.28468799591064453
            ]
        },
        {
            "mesh" : 1,
            "name" : "paper_collider",
            "scale" : [
                0.21311421692371368,
                0.07685157656669617,
                0.3049943149089813
            ]
        }
    ],
    "materials" : [
        {
            "doubleSided" : true,
            "name" : "Material.001",
            "pbrMetallicRoughness" : {
                "baseColorTexture" : {
                    "index" : 0,
                    "texCoord" : 0
                },
                "metallicFactor" : 0,
                "roughnessFactor" : 1
            }
        }
    ],
    "meshes" : [
        {
            "name" : "Plane.001",
            "primitives" : [
                {
                    "attributes" : {
                        "POSITION" : 0,
                        "NORMAL" : 1,
                        "TEXCOORD_0" : 2
                    },
                    "indices" : 3,
                    "material" : 0
                }
            ]
        },
        {
            "name" : "Cube.001",
            "primitives" : [
                {
                    "attributes" : {
                        "POSITION" : 4,
                        "NORMAL" : 5,
                        "TEXCOORD_0" : 6
                    },
                    "indices" : 7
                }
            ]
        }
    ],
    "textures" : [
        {
            "source" : 0
        }
    ],
    "images" : [
        {
            "bufferView" : 4,
            "mimeType" : "image/png",
            "name" : "76"
        }
    ],
    "accessors" : [
        {
            "bufferView" : 0,
            "componentType" : 5126,
            "count" : 12960,
            "max" : [
                1.0000007152557373,
                0.2250669002532959,
                1.000083565711975
            ],
            "min" : [
                -1.0000383853912354,
                -0.33270326256752014,
                -1.0000007152557373
            ],
            "type" : "VEC3"
        },
        {
            "bufferView" : 1,
            "componentType" : 5126,
            "count" : 12960,
            "type" : "VEC3"
        },
        {
            "bufferView" : 2,
            "componentType" : 5126,
            "count" : 12960,
            "type" : "VEC2"
        },
        {
            "bufferView" : 3,
            "componentType" : 5123,
            "count" : 19440,
            "type" : "SCALAR"
        },
        {
            "bufferView" : 5,
            "componentType" : 5126,
            "count" : 24,
            "max" : [
                1,
                1,
                1
            ],
            "min" : [
                -1,
                -1,
                -1
            ],
            "type" : "VEC3"
        },
        {
            "bufferView" : 6,
            "componentType" : 5126,
            "count" : 24,
            "type" : "VEC3"
        },
        {
            "bufferView" : 7,
            "componentType" : 5126,
            "count" : 24,
            "type" : "VEC2"
        },
        {
            "bufferView" : 8,
            "componentType" : 5123,
            "count" : 36,
            "type" : "SCALAR"
        }
    ],
    "bufferViews" : [
        {
            "buffer" : 0,
            "byteLength" : 155520,
            "byteOffset" : 0
        },
        {
            "buffer" : 0,
            "byteLength" : 155520,
            "byteOffset" : 155520
        },
        {
            "buffer" : 0,
            "byteLength" : 103680,
            "byteOffset" : 311040
        },
        {
            "buffer" : 0,
            "byteLength" : 38880,
            "byteOffset" : 414720
        },
        {
            "buffer" : 0,
            "byteLength" : 294117,
            "byteOffset" : 453600
        },
        {
            "buffer" : 0,
            "byteLength" : 288,
            "byteOffset" : 747720
        },
        {
            "buffer" : 0,
            "byteLength" : 288,
            "byteOffset" : 748008
        },
        {
            "buffer" : 0,
            "byteLength" : 192,
            "byteOffset" : 748296
        },
        {
            "buffer" : 0,
            "byteLength" : 72,
            "byteOffset" : 748488
        }
    ],
    "buffers" : [
        {
            "byteLength" : 748560,
            "uri" : "data:application/octet-stream;base64,"
        }
    ]
}
